<?xml version="1.0" standalone="no"?>
<!DOCTYPE svg PUBLIC "-//W3C//DTD SVG 20010904//EN"
 "http://www.w3.org/TR/2001/REC-SVG-20010904/DTD/svg10.dtd">
<svg version="1.0" xmlns="http://www.w3.org/2000/svg"
 width="512.000000pt" height="512.000000pt" viewBox="0 0 512.000000 512.000000"
 preserveAspectRatio="xMidYMid meet">
<metadata>
Created by potrace 1.11, written by Peter Selinger 2001-2013
</metadata>
<g transform="translate(0.000000,512.000000) scale(0.100000,-0.100000)"
fill="#000000" stroke="none">
<path d="M1845 4481 c-27 -4 -59 -12 -70 -18 -11 -5 -50 -13 -88 -16 -37 -4
-87 -15 -111 -26 -24 -10 -77 -24 -117 -31 -85 -14 -147 -38 -191 -75 -16 -14
-35 -25 -42 -25 -21 0 -107 -60 -176 -123 -158 -144 -156 -140 -239 -342 -65
-155 -97 -280 -113 -435 -25 -240 -13 -397 46 -594 14 -49 29 -108 32 -130 7
-47 33 -136 45 -151 8 -11 29 -74 47 -140 5 -22 20 -77 32 -123 24 -88 24
-157 1 -467 -9 -127 -16 -147 -74 -224 -23 -31 -52 -72 -64 -91 -47 -77 -136
-140 -196 -140 -52 0 -158 19 -172 31 -5 5 -15 9 -23 9 -8 0 -44 25 -79 55
-59 50 -69 55 -113 55 -28 0 -52 -6 -59 -14 -8 -9 -11 -55 -10 -131 1 -97 5
-124 21 -154 11 -20 24 -40 29 -46 5 -5 9 -17 9 -26 0 -10 8 -24 18 -31 9 -7
36 -38 58 -68 78 -104 163 -179 254 -225 30 -15 63 -32 72 -36 10 -5 27 -9 37
-9 11 0 22 -4 25 -9 3 -5 23 -12 43 -16 21 -4 71 -18 112 -31 68 -22 88 -24
280 -23 306 0 481 26 681 99 47 17 103 35 125 40 103 23 174 59 368 190 183
123 207 142 393 319 190 182 296 322 333 441 12 41 29 91 36 110 48 127 81
258 90 362 4 43 12 81 19 86 6 5 35 12 63 15 73 8 147 40 317 136 89 51 157
97 177 119 38 45 99 142 99 158 0 6 14 42 31 79 29 61 31 73 26 133 -7 73 -32
118 -63 115 -25 -3 -79 -27 -129 -58 -80 -49 -168 -85 -209 -85 -11 0 -33 -6
-47 -14 -39 -20 -228 -41 -243 -26 -7 7 -11 69 -11 183 0 116 -5 187 -14 217
-14 46 -25 108 -41 235 -9 70 -19 135 -40 254 -13 71 -83 250 -103 266 -8 6
-20 22 -28 37 -17 33 -85 111 -164 191 -46 46 -83 71 -162 108 -56 27 -109 49
-118 49 -9 0 -28 6 -43 14 -71 37 -200 56 -360 55 -86 -1 -179 -5 -207 -8z
m687 -688 c92 -51 146 -155 135 -261 -15 -145 -149 -254 -295 -239 -145 15
-254 149 -239 295 11 102 92 201 191 232 57 17 150 5 208 -27z m-800 -190 c92
-51 146 -155 135 -261 -15 -145 -149 -254 -295 -239 -145 15 -254 149 -239
295 11 102 92 201 191 232 57 17 150 5 208 -27z m611 -528 c42 -8 88 -22 102
-31 45 -29 28 -103 -45 -198 -34 -45 -57 -64 -90 -76 -25 -10 -61 -23 -80 -30
-19 -8 -72 -15 -118 -18 -69 -3 -93 1 -155 23 -39 14 -82 36 -95 49 -21 21
-23 27 -13 62 16 59 124 158 213 197 95 41 157 46 281 22z m-303 -460 c21 -22
23 -35 24 -118 1 -58 -3 -99 -11 -108 -6 -8 -14 -32 -18 -54 -15 -83 -70 -147
-197 -229 -82 -52 -183 -82 -347 -101 -223 -27 -369 -11 -388 43 -3 9 -11 24
-18 32 -20 26 -65 234 -65 302 0 85 17 103 85 92 26 -3 66 -8 89 -9 22 -1 79
-5 126 -10 106 -9 284 16 357 50 57 27 177 76 223 91 25 8 56 21 70 29 35 20
43 19 70 -10z"/>
<path d="M2380 3687 c-51 -27 -90 -90 -90 -147 0 -87 83 -170 170 -170 87 0
170 83 170 170 0 57 -39 120 -90 147 -55 29 -105 29 -160 0z"/>
<path d="M1580 3497 c-51 -27 -90 -90 -90 -147 0 -87 83 -170 170 -170 87 0
170 83 170 170 0 57 -39 120 -90 147 -55 29 -105 29 -160 0z"/>
<path d="M4176 4279 c-9 -26 -339 -2299 -335 -2304 10 -10 301 -47 308 -39 4
5 27 142 50 304 23 162 44 300 46 305 2 6 4 -272 4 -617 1 -613 1 -628 -18
-628 -11 0 -40 9 -66 20 -26 11 -60 20 -76 20 -44 0 -96 -25 -104 -50 -5 -16
-11 -19 -23 -13 -10 4 -57 8 -107 8 -70 0 -96 4 -115 18 -13 9 -35 17 -47 17
-26 0 -63 -32 -63 -55 0 -8 -8 -15 -18 -15 -10 0 -28 -7 -40 -16 -17 -12 -35
-14 -70 -9 -39 5 -52 3 -74 -15 -15 -11 -30 -31 -34 -43 -4 -12 -17 -32 -30
-44 -44 -40 -26 -96 36 -114 31 -9 42 -19 50 -44 10 -31 72 -85 97 -85 6 0 17
-17 23 -37 20 -62 53 -114 82 -129 21 -11 28 -22 28 -44 0 -44 37 -78 103 -95
32 -8 71 -15 87 -15 17 0 30 -4 30 -10 0 -19 60 -77 97 -94 26 -12 44 -31 58
-59 29 -58 92 -91 160 -83 58 7 57 7 112 0 54 -8 78 8 162 101 84 94 82 92
122 155 32 52 34 60 35 146 l1 92 36 35 c20 19 37 41 37 49 0 8 11 20 25 26
32 15 61 62 69 112 3 21 19 67 36 102 49 103 40 127 -59 157 -48 15 -82 19
-113 15 -41 -6 -47 -3 -92 35 -26 23 -53 41 -60 41 -19 0 -108 -18 -128 -25
-17 -7 -18 48 -18 1055 l0 1063 55 373 c30 206 55 380 55 388 0 9 -30 18 -102
29 -191 30 -207 31 -212 16z"/>
</g>
</svg>
