<?xml version="1.0" standalone="no"?>
<!DOCTYPE svg PUBLIC "-//W3C//DTD SVG 20010904//EN"
 "http://www.w3.org/TR/2001/REC-SVG-20010904/DTD/svg10.dtd">
<svg version="1.0" xmlns="http://www.w3.org/2000/svg"
 width="512.000000pt" height="512.000000pt" viewBox="0 0 512.000000 512.000000"
 preserveAspectRatio="xMidYMid meet">
<metadata>
Created by potrace 1.11, written by Peter Selinger 2001-2013
</metadata>
<g transform="translate(0.000000,512.000000) scale(0.100000,-0.100000)"
fill="#000000" stroke="none">
<path d="M0 2560 l0 -2560 2560 0 2560 0 0 2560 0 2560 -2560 0 -2560 0 0
-2560z m2296 1909 c49 -11 101 -27 116 -35 15 -8 34 -14 43 -14 9 0 62 -22
118 -49 79 -37 116 -62 162 -108 79 -80 147 -158 164 -191 8 -15 20 -31 28
-37 20 -16 90 -195 103 -266 21 -119 31 -184 40 -254 16 -127 27 -189 41 -235
9 -30 14 -101 14 -217 0 -114 4 -176 11 -183 15 -15 204 6 243 26 14 8 36 14
47 14 41 0 129 36 209 85 50 31 104 55 129 58 31 3 56 -42 63 -115 5 -60 3
-72 -26 -133 -17 -37 -31 -73 -31 -79 0 -16 -61 -113 -99 -158 -20 -22 -88
-68 -177 -119 -170 -96 -244 -128 -317 -136 -28 -3 -57 -10 -63 -15 -7 -5 -15
-43 -19 -86 -9 -104 -42 -235 -90 -362 -7 -19 -24 -69 -36 -110 -37 -119 -143
-259 -333 -441 -186 -177 -210 -196 -393 -319 -194 -131 -265 -167 -368 -190
-22 -5 -78 -23 -125 -40 -200 -73 -375 -99 -681 -99 -192 -1 -212 1 -280 23
-41 13 -91 27 -112 31 -20 4 -40 11 -43 16 -3 5 -14 9 -25 9 -10 0 -27 4 -37
9 -9 4 -42 21 -72 36 -91 46 -176 121 -254 225 -22 30 -49 61 -58 68 -10 7
-18 21 -18 31 0 9 -4 21 -9 26 -5 6 -18 26 -29 46 -16 30 -20 57 -21 154 -1
76 2 122 10 131 7 8 31 14 59 14 44 0 54 -5 113 -55 35 -30 71 -55 79 -55 8 0
18 -4 23 -9 14 -12 120 -31 172 -31 60 0 149 63 196 140 12 19 41 60 64 91 58
77 65 97 74 224 23 310 23 379 -1 467 -12 46 -27 101 -32 123 -18 66 -39 129
-47 140 -12 15 -38 104 -45 151 -3 22 -18 81 -32 130 -59 197 -71 354 -46 594
16 155 48 280 113 435 83 202 81 198 239 342 69 63 155 123 176 123 7 0 26 11
42 25 44 37 106 61 191 75 40 7 93 21 117 31 24 11 74 22 111 26 38 3 77 11
88 16 31 17 107 24 277 26 127 1 173 -3 244 -20z m2042 -193 c84 -13 154 -25
157 -27 2 -3 -23 -186 -55 -408 l-60 -403 0 -1045 c0 -991 1 -1045 18 -1038
20 7 109 25 128 25 7 0 34 -18 60 -41 45 -38 51 -41 92 -35 31 4 65 0 113 -15
99 -30 108 -54 59 -157 -17 -35 -33 -81 -36 -102 -8 -50 -37 -97 -69 -112 -14
-6 -25 -18 -25 -26 0 -8 -17 -30 -37 -49 l-36 -35 -1 -92 c-1 -86 -3 -94 -35
-146 -40 -63 -38 -61 -122 -155 -84 -93 -108 -109 -162 -101 -55 7 -54 7 -112
0 -68 -8 -131 25 -160 83 -14 28 -32 47 -58 59 -37 17 -97 75 -97 94 0 6 -13
10 -30 10 -16 0 -55 7 -87 15 -66 17 -103 51 -103 95 0 22 -7 33 -28 44 -29
15 -62 67 -82 129 -6 20 -17 37 -23 37 -25 0 -87 54 -97 85 -8 25 -19 35 -50
44 -62 18 -80 74 -36 114 13 12 26 32 30 44 4 12 19 32 34 43 22 18 35 20 74
15 35 -5 53 -3 70 9 12 9 30 16 40 16 10 0 18 7 18 15 0 23 37 55 63 55 12 0
34 -8 47 -17 19 -14 45 -18 115 -18 50 0 97 -4 107 -8 12 -6 18 -3 23 13 8 25
60 50 104 50 16 0 50 -9 76 -20 26 -11 55 -20 66 -20 19 0 19 15 18 613 l-1
612 -45 -300 c-25 -165 -46 -301 -47 -302 -4 -4 -316 43 -321 48 -2 3 72 524
166 1158 93 634 169 1157 169 1162 0 11 -13 12 168 -15z"/>
<path d="M2324 3820 c-99 -31 -180 -130 -191 -232 -15 -146 94 -280 239 -295
146 -15 280 94 295 239 15 152 -98 285 -250 294 -34 2 -76 -1 -93 -6z m216
-133 c51 -27 90 -90 90 -147 0 -87 -83 -170 -170 -170 -57 0 -120 39 -147 90
-13 24 -23 60 -23 80 0 57 39 120 90 147 55 29 105 29 160 0z"/>
<path d="M1524 3630 c-99 -31 -180 -130 -191 -232 -15 -146 94 -280 239 -295
146 -15 280 94 295 239 15 152 -98 285 -250 294 -34 2 -76 -1 -93 -6z m216
-133 c51 -27 90 -90 90 -147 0 -87 -83 -170 -170 -170 -57 0 -120 39 -147 90
-13 24 -23 60 -23 80 0 57 39 120 90 147 55 29 105 29 160 0z"/>
<path d="M2125 3077 c-131 -45 -255 -144 -276 -221 -10 -35 -8 -41 13 -62 13
-13 56 -35 95 -49 62 -22 86 -26 155 -23 46 3 99 10 118 18 19 7 55 20 80 30
33 12 56 31 90 76 73 95 90 169 45 198 -55 36 -253 57 -320 33z"/>
<path d="M1970 2625 c-14 -8 -45 -21 -70 -29 -46 -15 -166 -64 -223 -91 -73
-34 -251 -59 -357 -50 -47 5 -104 9 -126 10 -23 1 -63 6 -89 9 -68 11 -85 -7
-85 -92 0 -68 45 -276 65 -302 7 -8 15 -23 18 -32 19 -54 165 -70 388 -43 164
19 265 49 347 101 127 82 182 146 197 229 4 22 12 46 18 54 8 9 12 50 11 108
-1 83 -3 96 -24 118 -27 29 -35 30 -70 10z"/>
</g>
</svg>
